<svg width="107" height="108" viewBox="0 0 107 108" fill="none" xmlns="http://www.w3.org/2000/svg">
<path d="M90.6258 100.172L92.6863 99.7475L91.6136 97.9378L70.5506 62.4033L104.217 42.2999L105.129 41.7549L104.917 40.7132L100.108 17.0493L99.695 15.0181L97.8947 16.0451L56.995 39.3769L35.8373 4.02701L35.1014 2.79752L33.8395 3.47639L13.588 14.3714L12.2196 15.1076L13.0036 16.4491L34.2409 52.7932L3.50398 71.1517L2.29259 71.8752L2.94079 73.1286L13.7865 94.0992L14.5147 95.5072L15.8804 94.7024L48.0905 75.7215L65.071 104.401L65.6162 105.322L66.6643 105.106L90.6258 100.172Z" fill="url(#paint0_linear_191_129)" stroke="#373737" stroke-width="3"/>
<defs>
<linearGradient id="paint0_linear_191_129" x1="108.447" y1="71.4075" x2="7.79813" y2="31.5021" gradientUnits="userSpaceOnUse">
<stop stop-color="white"/>
<stop offset="0.5" stop-color="#D8D8D8"/>
<stop offset="1" stop-color="white"/>
</linearGradient>
</defs>
</svg>
