<?xml version="1.0" encoding="utf-8"?>
<!-- Generator: Adobe Illustrator 16.0.0, SVG Export Plug-In . SVG Version: 6.00 Build 0)  -->
<!DOCTYPE svg PUBLIC "-//W3C//DTD SVG 1.1//EN" "http://www.w3.org/Graphics/SVG/1.1/DTD/svg11.dtd">
<svg version="1.1" id="Layer_1" xmlns="http://www.w3.org/2000/svg" xmlns:xlink="http://www.w3.org/1999/xlink" x="0px" y="0px"
	 width="595.28px" height="841.89px" viewBox="0 0 595.28 841.89" enable-background="new 0 0 595.28 841.89" xml:space="preserve">
<path fill="#E41A1D" d="M108.615,772.476l0.362-95.603l-59.504-0.227l-22.018,21.477l-0.309,81.315l28.631-2.446l0.034-8.899
	l24.291,0.092l-0.025,6.731L108.615,772.476z M55.909,742.201l0.15-39.638l24.292,0.093l-0.15,39.637L55.909,742.201z"/>
<polygon fill="#AD0F17" points="90.029,816.519 118.557,816.519 118.557,779.803 90.029,782.523 "/>
<polygon fill="#AD0F17" points="37.116,790.488 37.116,816.518 65.738,816.518 65.738,784.838 37.655,787.515 "/>
<path d="M29.774,658.856h37.559c1.228,0,1.636-0.613,1.636-1.632v-10.209c0-1.123-0.408-1.633-1.636-1.633H42.125v-15.104h19.189
	c1.019,0,1.632-0.613,1.632-1.737v-10.104c0-1.123-0.613-1.737-1.632-1.737H42.125v-15.719h25.209c1.228,0,1.636-0.711,1.636-1.733
	V589.04c0-1.019-0.408-1.632-1.636-1.632H29.774c-0.917,0-1.531,0.613-1.531,1.632v68.185
	C28.243,658.243,28.857,658.856,29.774,658.856"/>
<path d="M104.989,610.475h10.31c1.12,0,1.632-0.61,1.632-1.634v-6.737c0-9.596-5.102-14.696-14.697-14.696H90.801
	c-9.489,0-14.697,5.101-14.697,14.696v17.658c0,1.939,0.917,3.167,2.756,3.776l24.493,7.963v10.311c0,2.755-1.426,4.08-4.08,4.08
	h-5.51c-2.554,0-4.085-1.325-4.085-4.08v-4.29c0-1.12-0.508-1.633-1.632-1.633H77.737c-1.022,0-1.633,0.513-1.633,1.633v6.637
	c0,9.594,5.208,14.697,14.697,14.697h11.433c9.595,0,14.697-5.104,14.697-14.697v-19.19c0-1.938-0.917-3.162-2.654-3.775
	l-24.7-7.963v-8.674c0-2.654,1.532-4.084,4.081-4.084h5.615c2.755,0,4.08,1.43,4.08,4.084v4.285
	C103.353,609.865,103.968,610.475,104.989,610.475"/>
<path d="M55.474,472.467c-0.56,1.955-0.732,4.207-0.439,6.507C54.85,477.045,54.978,474.853,55.474,472.467"/>
<path fill="#E41A1D" d="M149.885,763.932l7.532,0.028l1.436,4.223l26.851-2.295l-0.793-2.201l15.441,0.058l0.328-86.523L142.401,677
	l-20.786,19.127l-0.286,75.263l28.537-2.439L149.885,763.932z M150.116,702.92l21.938,0.083l-0.134,35.494l-21.939-0.084
	L150.116,702.92z"/>
<polygon fill="#E41A1D" points="242.385,703.27 265.359,703.357 265.261,728.871 293.884,728.98 294.079,677.576 234.198,677.347 
	213.792,696.004 213.535,763.508 242.167,761.063 "/>
<path fill="#E41A1D" d="M386.913,677.927l-59.503-0.227l-22.021,21.477l-0.214,56.5l81.469-6.963L386.913,677.927z M358.137,743.346
	l-24.29-0.093l0.15-39.637l24.29,0.092L358.137,743.346z"/>
<polygon fill="#E41A1D" points="428.053,703.974 451.402,704.062 451.254,743.193 479.885,740.745 480.04,699.838 458.186,678.198 
	399.622,677.976 399.358,747.627 427.896,745.189 "/>
<polygon fill="#E41A1D" points="555.527,730.725 519.562,730.587 519.661,704.321 557.51,704.463 557.607,678.574 491.514,678.324 
	491.28,739.772 555.515,734.282 "/>
<polygon fill="#AD0F17" points="131.268,816.519 159.794,816.519 159.794,775.871 131.268,778.589 "/>
<polygon fill="#AD0F17" points="169.951,774.903 184.275,816.518 212.897,816.518 196.803,772.341 "/>
<polygon fill="#AD0F17" points="275.038,790.722 252.064,790.722 252.064,767.073 223.443,769.802 223.443,816.519 284.83,816.519 
	303.661,797.689 303.661,774.15 275.038,774.15 "/>
<polygon fill="#AD0F17" points="315.053,816.519 343.677,816.519 343.677,771.795 367.967,771.795 367.967,816.519 396.495,816.519 
	396.495,753.301 315.053,761.068 "/>
<polygon fill="#AD0F17" points="461.083,790.722 437.732,790.722 437.732,749.37 409.204,752.089 409.204,816.519 470.593,816.519 
	489.704,797.689 489.704,744.414 461.083,747.144 "/>
<polygon fill="#AD0F17" points="529.72,790.722 529.72,757.955 565.309,757.955 565.309,737.206 501.096,743.328 501.096,816.519 
	568.134,816.519 568.134,790.722 "/>
<path d="M307.544,587.4c-9.578,0-14.68,5.102-14.68,14.704v42.065c0,9.578,5.102,14.679,14.68,14.679h11.43
	c9.604,0,14.704-5.101,14.704-14.679v-42.065c0-9.603-5.101-14.704-14.704-14.704H307.544z M320.824,604.656v36.938
	c0,2.776-1.426,4.102-4.076,4.102h-6.553c-2.651,0-4.076-1.325-4.076-4.102v-36.938c0-2.65,1.425-4.076,4.076-4.076h6.553
	C319.398,600.58,320.824,602.005,320.824,604.656"/>
<path d="M137.135,658.856h10.613c1.123,0,1.632-0.51,1.632-1.632v-56.345h11.841c1.123,0,1.632-0.609,1.632-1.632V589.04
	c0-1.019-0.509-1.632-1.632-1.632h-37.563c-1.018,0-1.632,0.613-1.632,1.632v10.208c0,1.022,0.614,1.632,1.632,1.632h11.841v56.345
	C135.499,658.346,136.109,658.856,137.135,658.856"/>
<path d="M162.232,658.856h10.002c0.921,0,1.43-0.509,1.636-1.43l3.163-12.859h19.189l3.265,12.859
	c0.206,0.921,0.719,1.43,1.636,1.43h9.901c1.225,0,1.734-0.614,1.431-1.738l-16.944-68.28c-0.205-1.022-0.82-1.431-1.737-1.431
	h-14.188c-0.921,0-1.531,0.408-1.737,1.431l-16.943,68.28C160.599,658.242,161.112,658.856,162.232,658.856 M186.628,604.964
	l6.432,27.762h-12.859L186.628,604.964z"/>
<path d="M247.348,614.761h9.595c1.018,0,1.632-0.61,1.632-1.633v-11.024c0-9.595-5.204-14.697-14.697-14.697h-11.433
	c-9.591,0-14.798,5.103-14.798,14.697v42.054c0,9.595,5.207,14.698,14.798,14.698h11.433c9.493,0,14.697-5.104,14.697-14.698
	v-11.023c0-1.021-0.614-1.633-1.632-1.633h-9.595c-1.123,0-1.632,0.611-1.632,1.633v8.678c0,2.755-1.43,4.08-4.084,4.08h-6.533
	c-2.654,0-4.084-1.325-4.084-4.08v-37.054c0-2.654,1.329-4.08,4.084-4.08h6.533c2.654,0,4.084,1.426,4.084,4.08v8.37
	C245.716,614.151,246.225,614.761,247.348,614.761"/>
<path d="M270.404,587.408c-1.123,0-1.632,0.612-1.632,1.632v68.184c0,1.02,0.509,1.632,1.632,1.632h10.617
	c1.018,0,1.632-0.612,1.632-1.632V589.04c0-1.02-0.614-1.632-1.632-1.632H270.404z"/>
<path d="M376.233,587.408c-1.123,0-1.632,0.612-1.632,1.632v38.685l-19.189-38.989c-0.408-0.921-0.917-1.327-1.834-1.327h-8.064
	c-1.021,0-1.632,0.612-1.632,1.632v68.184c0,1.02,0.61,1.632,1.632,1.632h9.592c1.122,0,1.636-0.612,1.636-1.632v-38.685
	l19.186,38.992c0.41,0.917,0.921,1.324,1.842,1.324h8.063c1.019,0,1.631-0.612,1.631-1.632V589.04c0-1.02-0.612-1.632-1.631-1.632
	H376.233z"/>
<path d="M409.972,658.746h157.555v-72.524H409.972V658.746z M539.82,619.134c2.866,0.007,5.193,2.332,5.198,5.191
	c0.005,2.908-2.338,5.237-5.251,5.222c-2.876-0.018-5.197-2.329-5.211-5.192C534.542,621.484,536.919,619.127,539.82,619.134
	 M529.379,608.667c2.814,0.01,5.074,2.338,5.097,5.195c0.021,2.768-2.077,5.148-5.11,5.152c-3.092,0.004-5.125-2.441-5.173-5.125
	C524.185,611.067,526.578,608.656,529.379,608.667 M529.366,629.65c2.896,0.006,5.181,2.302,5.174,5.196
	c-0.009,2.888-2.313,5.18-5.202,5.175c-2.869-0.006-5.19-2.334-5.188-5.204C524.154,631.948,526.481,629.643,529.366,629.65
	 M518.73,619.013c2.896,0.007,5.182,2.303,5.173,5.197c-0.009,2.888-2.313,5.181-5.201,5.175c-2.869-0.007-5.191-2.334-5.188-5.203
	C513.518,621.313,515.845,619.007,518.73,619.013 M435.481,618.963c1.718-0.031,3.438-0.041,5.155,0.004
	c0.798,0.02,1.039-0.28,1.019-1.047c-0.042-1.639-0.028-3.277-0.007-4.915c0.028-2.194,1.245-3.401,3.431-3.422
	c1.359-0.014,2.719-0.017,4.077,0.002c2.067,0.026,3.259,1.201,3.301,3.28c0.032,1.56,0.003,3.118,0.014,4.677
	c0.003,0.428,0.051,0.856,0.085,1.399c1.974,0,3.845-0.006,5.716,0.001c2.385,0.011,3.529,1.141,3.561,3.517
	c0.015,1.198,0.011,2.398,0.002,3.598c-0.021,2.572-1.093,3.662-3.636,3.678c-1.834,0.012-3.667,0.002-5.712,0.002
	c0,0.813,0.002,1.518,0,2.222c-0.005,1.398,0.037,2.8-0.032,4.194c-0.082,1.65-1.202,2.839-2.784,2.909
	c-1.714,0.074-3.438,0.08-5.151,0.002c-1.703-0.078-2.815-1.381-2.85-3.247c-0.033-1.954-0.007-3.909-0.007-5.992
	c-0.523-0.032-0.947-0.08-1.371-0.083c-1.639-0.011-3.278,0.024-4.916-0.021c-1.774-0.049-3.005-1.247-3.076-3.028
	c-0.062-1.556-0.061-3.119-0.001-4.675C432.367,620.201,433.646,618.995,435.481,618.963"/>
<path fill="#AD0F17" d="M218.148,158.35c2.276,10.469,4.48,20.552,6.513,29.824c0.424,0.186,0.826,0.39,1.253,0.574
	c14.909,5.172,40.264,12.238,69.595,13.342c0.355-0.038,0.707-0.053,1.062-0.095c0.794,0.093,1.584,0.14,2.377,0.214
	c11.548,0.243,23.653-0.475,35.939-2.616c10.513-2.359,20.697-5.905,30.41-10c3.377-15.398,7.272-33.239,11.146-51.174
	C333.647,152.444,265.628,156.976,218.148,158.35"/>
<path fill="#AD0F17" d="M296.572,202.134v-0.14V202.134z"/>
<path fill="#E5191E" d="M376.443,138.419c3.77-17.455,7.505-34.93,10.707-50.251c-23.135-10.089-57.107-21.624-91.412-21.567
	c-34.383,0.057-62.402,5.475-92.941,20.016c4.488,21.507,10.083,47.509,15.351,71.733
	C265.628,156.977,333.647,152.444,376.443,138.419"/>
<polygon fill="#E5191E" points="318.481,518.477 380.221,466.616 307.004,472.083 382.186,435.662 296.255,464.581 210.184,435.662 
	286.628,472.083 214.233,466.742 286.628,521.663 225.548,493.627 238.851,550.33 353.519,550.33 368.085,493.627 "/>
<polygon fill="#AD0F17" points="398.112,451.587 382.186,435.661 307.005,472.083 380.221,466.615 318.481,518.477 368.086,493.628 
	353.519,550.329 410.853,464.328 "/>
<polygon fill="#AD0F17" points="286.629,521.663 214.234,466.742 286.629,472.083 210.183,435.662 194.257,451.587 181.516,464.329 
	238.851,550.33 225.548,493.628 "/>
<path d="M34.001,480.097c-0.086-0.032-0.198-0.139-0.29-0.183c4.738,4.624,12.84,7.695,25.608,6.604
	c34.016-2.91,89.861-7.002,89.861-7.002s38.881-37.688,71.105-78.274c15.998,7.997,42.443,17.897,75.439,17.897
	c23.5,0,50.327-5.146,78.988-19.465c32.462,41.202,72.377,79.908,72.377,79.908s55.845,4.098,89.861,7.011
	c12.617,1.081,20.662-1.914,25.424-6.448c-2.565,0.77-69.006-77.103-114.818-131.253c7.179-12.375,11.469-24.589,13.763-32.759
	c1.708-6.084,2.349-9.928,2.349-9.928s1.478-13.086,2.434-31.138c21.362-54.702,25.808-163.251,25.808-163.251l-0.014-0.018
	l-0.903,15.947l-2.169,27.256l-1.703,16.806l-2.425,19.912l-2.783,18.885l-3.209,17.991l-3.396,15.731l-4.098,15.476l-5.069,14.975
	l-0.027,0.065c2.272-43.23,1.492-114.816-29.758-105.2c-11.863,3.65-28.514,14.084-48.188,24.344l-0.138-0.226
	c-1.604,0.986-3.227,1.873-4.845,2.784c-7.568,3.82-15.539,7.53-23.829,10.769c-71.791,25.032-146.599-9.376-147.449-9.771
	l-0.117,0.248c-22.894-11.364-42.237-24.043-55.577-28.147c-32.897-10.123-32.03,69.748-29.379,111.786
	c0.925,14.677,2.066,24.777,2.066,24.777s0.938,5.451,3.437,13.554c2.652,8.6,7.127,20.197,14.236,31.771
	C100.828,405.567,36.443,480.957,34.001,480.097 M196.466,260.313c0.027-9.036,7.234-16.207,16.27-16.188
	c0.852,0.001,1.67,0.127,2.486,0.255c0.861-0.136,1.727-0.257,2.63-0.255c8.978,0.018,16.241,7.301,16.23,16.276
	c-0.011,8.975-7.292,16.188-16.317,16.168c-0.862-0.003-1.689-0.127-2.511-0.254c-0.854,0.134-1.712,0.256-2.605,0.254
	C203.59,276.547,196.439,269.365,196.466,260.313 M246.009,277.398c0.853,0.002,1.67,0.128,2.486,0.255
	c0.861-0.136,1.728-0.257,2.63-0.255c8.979,0.018,16.241,7.302,16.23,16.276c-0.011,8.975-7.291,16.189-16.317,16.168
	c-0.862-0.002-1.688-0.126-2.511-0.254c-0.853,0.135-1.712,0.256-2.604,0.254c-9.06-0.021-16.21-7.203-16.184-16.256
	C229.767,284.551,236.974,277.38,246.009,277.398 M217.77,309.84c9.671-0.013,16.032,7.635,16.181,16.033
	c0.027,8.83-7.461,16.37-16.224,16.339c-0.864-0.003-1.695-0.13-2.52-0.267c-0.853,0.145-1.711,0.27-2.596,0.267
	c-8.804-0.03-15.873-7.314-15.941-16.256c-0.067-8.655,6.496-16.103,15.984-16.116c0.9-0.001,1.74,0.128,2.581,0.254
	C216.062,309.97,216.888,309.842,217.77,309.84 M433.934,286.181c0.194,4.933,0.194,9.886,0.005,14.819
	c-0.222,5.761-4.275,9.584-10.093,9.686c-1.162,0.021-2.325-0.016-3.488-0.002c-0.005,0-0.01,0.002-0.016,0.002
	c-4.287,0.076-8.578,0.048-12.867-0.01c-2.5-0.056-3.263,0.896-3.2,3.316c0.134,5.19,0.087,10.388,0.021,15.581
	c-0.089,6.955-3.947,10.783-10.876,10.846c-1.164,0.011-2.329-0.007-3.493-0.001c-0.004,0-0.007,0.001-0.011,0.001
	c-4.308,0.039-8.615,0.051-12.923-0.006c-6.555-0.086-10.332-3.808-10.466-10.401c-0.1-4.939-0.009-9.882-0.042-14.823
	c-0.009-1.356-0.159-2.712-0.269-4.436c-2.331,0.002-4.659,0.002-6.932,0.003c-3.771,0.004-7.497,0.005-11.189-0.01
	c-7.558-0.032-11.188-3.612-11.284-11.145c-0.049-3.8-0.035-7.602-0.006-11.402c0.063-8.155,3.464-11.609,11.523-11.662
	c3.606-0.023,7.277-0.021,11.044-0.015c2.275,0.001,4.666,0.001,7.063,0.004c0-2.575-0.007-4.805,0.001-7.036
	c0.016-4.433-0.119-8.875,0.101-13.299c0.26-5.23,3.808-9,8.822-9.218c5.437-0.237,10.9-0.254,16.336-0.008
	c0.002,0,0.004,0.002,0.007,0.002c1.165,0.029,2.333-0.055,3.496-0.002c5.398,0.244,8.924,4.378,9.029,10.294
	c0.11,6.192,0.024,12.388,0.024,18.993c1.661,0.104,3.003,0.252,4.347,0.263c5.194,0.037,10.392-0.075,15.582,0.068
	C429.809,276.737,433.71,280.534,433.934,286.181 M180.113,276.892c0.831,0.004,1.627,0.132,2.423,0.254
	c0.881-0.139,1.769-0.259,2.692-0.254c8.997,0.049,16.258,7.284,16.303,16.241c0.044,8.979-7.391,16.353-16.468,16.332
	c-0.857-0.002-1.681-0.128-2.503-0.258c-0.857,0.136-1.718,0.26-2.613,0.258c-8.966-0.022-16.246-7.294-16.261-16.244
	C163.671,284.125,170.998,276.842,180.113,276.892"/>
<path fill="#1A1A1A" d="M28.306,468.96c0.013,0.141,0.018,0.286,0.034,0.425c0.001,0.012,0.005,0.021,0.006,0.033
	c0.687,5.87,3.528,9.598,5.366,10.495c0.092,0.045,0.203,0.151,0.29,0.184c2.442,0.858,66.827-74.53,112.571-128.567
	c-7.109-11.573-11.584-23.171-14.237-31.771L30.626,455.622c-0.888,2.092-1.43,4.042-1.82,5.919
	C28.241,464.26,28.095,466.76,28.306,468.96"/>
<path d="M365.298,189.593c29.816-12.571,55.138-30.379,71.438-35.395c15.995-4.922,23.984,11.479,27.692,34.425
	c7.242-45.734,14.354-91.042,14.728-93.425c-11.81-15.417-29.37-38.406-41.874-55.077c-20.484-27.313-40.969-10.243-40.969,0
	c0,3.133-3.841,22.59-9.162,48.047c-3.203,15.322-6.938,32.797-10.707,50.252C372.57,156.355,368.675,174.195,365.298,189.593"/>
<path fill="#1A1A1A" d="M562.374,480.146c0.001-0.001,0.009,0.006,0.009,0.006c2.032-0.714,5.637-5.544,5.734-13.056
	c0.003-0.212,0.016-0.416,0.013-0.632c-0.011-0.733-0.059-1.481-0.143-2.265c-0.01-0.093-0.034-0.195-0.045-0.288
	c-0.299-2.532-0.915-5.254-2.181-8.235L461.318,316.133c-2.294,8.171-6.584,20.385-13.763,32.76
	C493.368,403.042,559.809,480.915,562.374,480.146"/>
<path d="M99.251,127.566l-0.877-15.484C98.417,113.06,98.667,118.667,99.251,127.566"/>
<path d="M127.498,199.388c2.868-28.308,10.688-50.854,29.096-45.19c15.7,4.83,39.731,21.515,68.068,33.976
	c-2.033-9.272-4.237-19.355-6.513-29.824c-5.269-24.224-10.863-50.226-15.351-71.733c-5.151-24.685-8.84-43.428-8.84-46.497
	c0-10.242-20.485-27.313-40.969,0c-20.485,27.313-54.626,71.696-54.626,71.696l0.003,0.061l12.715-16.571
	C111.081,95.306,119.519,149.071,127.498,199.388"/>
<path d="M101.373,154.376l-2.052-25.784C99.788,135.586,100.457,144.411,101.373,154.376"/>
<path fill="#1A1A1A" d="M156.212,169.642c13.34,4.104,32.683,16.784,55.577,28.148l0.117-0.249
	c0.849,0.397,75.658,34.805,147.449,9.773c8.29-3.24,16.261-6.949,23.829-10.77c1.618-0.911,3.24-1.798,4.845-2.784l0.138,0.226
	c19.674-10.259,36.324-20.694,48.188-24.344c31.25-9.616,32.029,61.97,29.758,105.201l0.027-0.065l5.069-14.975l4.098-15.476
	l3.396-15.732l3.209-17.99l2.783-18.886l2.425-19.912l1.703-16.805l2.169-27.256l0.903-15.948l0.014-0.243l-12.719-16.574
	c0,0-0.023,0.152-0.033,0.217c-0.374,2.383-7.486,47.692-14.728,93.425c-3.708-22.946-11.697-39.347-27.692-34.425
	c-16.301,5.016-41.622,22.824-71.438,35.395c-9.713,4.096-19.897,7.642-30.41,10c-12.286,2.141-24.392,2.86-35.939,2.616
	c-0.793-0.074-1.583-0.12-2.377-0.214v0.14v-0.14c-0.355,0.042-0.707,0.058-1.062,0.096c-29.331-1.105-54.686-8.17-69.595-13.342
	c-0.427-0.185-0.829-0.388-1.253-0.575c-28.337-12.46-52.368-29.145-68.068-33.976c-18.408-5.664-26.228,16.882-29.096,45.191
	c-7.979-50.318-16.416-104.082-16.416-104.082l-12.716,16.57l-0.003,0.004l0.012,0.202l0.877,15.484l0.028,0.504l0.042,0.522
	l2.052,25.784l0.075,0.951l0.14,1.377l1.37,13.511l0.194,1.917l0.109,0.899l2.181,17.915l0.134,1.098l0.243,1.653l2.289,15.523
	l0.252,1.71l0.285,1.597l2.581,14.474l0.342,1.919l0.309,1.428l2.675,12.396l0.412,1.908l0.361,1.363l3.282,12.397l0.454,1.715
	l0.368,1.086l4.222,12.472l0.48,1.417l0.443,1.039l1.473,3.448l0.786,1.838C124.183,239.391,123.315,159.519,156.212,169.642"/>
<path fill="#666666" d="M366.437,276.526c-2.397-0.003-4.788-0.003-7.063-0.004c2.304,0.004,4.604,0.008,7.063,0.008V276.526z"/>
<path fill="#666666" d="M404.253,276.252c0-6.605,0.086-12.801-0.024-18.993c-0.105-5.916-3.631-10.049-9.029-10.294
	c-1.163-0.053-2.331,0.031-3.496,0.002c5.394,0.249,8.917,4.379,9.021,10.292c0.11,6.192,0.024,12.388,0.024,18.993
	c1.661,0.104,3.004,0.252,4.348,0.263c5.193,0.037,10.391-0.075,15.582,0.068c5.627,0.154,9.528,3.951,9.751,9.598
	c0.195,4.933,0.194,9.886,0.005,14.82c-0.22,5.754-4.268,9.574-10.078,9.683c1.164-0.014,2.327,0.024,3.489,0.003
	c5.817-0.102,9.872-3.926,10.093-9.686c0.189-4.934,0.189-9.887-0.005-14.82c-0.224-5.647-4.125-9.444-9.752-9.598
	c-5.19-0.143-10.388-0.031-15.582-0.068C407.256,276.504,405.914,276.356,404.253,276.252"/>
<path fill="#666666" d="M400.771,313.991c0.134,5.191,0.088,10.389,0.021,15.582c-0.087,6.951-3.942,10.777-10.864,10.845
	c1.164-0.006,2.329,0.012,3.493,0.001c6.929-0.063,10.787-3.891,10.876-10.846c0.065-5.193,0.112-10.391-0.021-15.582
	c-0.063-2.419,0.7-3.371,3.2-3.315c-1.157-0.016-2.316,0.028-3.475-0.002C401.472,310.607,400.709,311.562,400.771,313.991"/>
<path fill="#666666" d="M359.285,310.756c2.272,0,4.601,0,6.932-0.002v-0.003C363.855,310.751,361.571,310.754,359.285,310.756"/>
<path fill="#FFFFFF" d="M430.435,301c0.189-4.934,0.19-9.887-0.005-14.82c-0.223-5.646-4.124-9.443-9.751-9.597
	c-5.191-0.143-10.389-0.032-15.582-0.069c-1.344-0.01-2.687-0.158-4.348-0.263c0-6.605,0.086-12.8-0.024-18.993
	c-0.104-5.913-3.628-10.043-9.021-10.292c-0.003,0-0.005-0.001-0.007-0.001c-5.436-0.247-10.899-0.23-16.336,0.007
	c-5.015,0.219-8.563,3.989-8.821,9.218c-0.221,4.424-0.086,8.866-0.102,13.3c-0.008,2.23-0.001,4.461-0.001,7.035v0.004
	c-2.46,0-4.76-0.004-7.063-0.008c-3.767-0.005-7.438-0.008-11.043,0.016c-8.061,0.053-11.462,3.506-11.524,11.661
	c-0.029,3.801-0.043,7.602,0.006,11.403c0.097,7.532,3.728,11.113,11.284,11.144c3.693,0.016,7.418,0.014,11.189,0.01
	c2.286-0.002,4.57-0.005,6.932-0.005v0.003c0.109,1.724,0.26,3.08,0.269,4.435c0.033,4.941-0.058,9.884,0.042,14.823
	c0.134,6.593,3.911,10.316,10.466,10.402c4.307,0.056,8.615,0.045,12.923,0.006c0.004,0,0.007-0.002,0.011-0.002
	c6.922-0.067,10.778-3.894,10.865-10.844c0.066-5.194,0.112-10.391-0.021-15.582c-0.063-2.43,0.701-3.384,3.23-3.318
	c1.157,0.031,2.316-0.013,3.474,0.003c4.289,0.057,8.58,0.086,12.868,0.01c0.005,0,0.01-0.002,0.015-0.002
	C426.167,310.575,430.215,306.755,430.435,301"/>
<path fill="#999999" d="M196.415,293.133c0.041,8.095-6.015,14.831-13.855,16.074c0.822,0.13,1.646,0.256,2.503,0.258
	c9.077,0.021,16.512-7.353,16.468-16.332c-0.045-8.958-7.306-16.192-16.303-16.241c-0.922-0.006-1.811,0.115-2.691,0.254
	C190.369,278.354,196.375,285.003,196.415,293.133"/>
<path fill="#999999" d="M228.834,325.873c0.025,7.938-6.039,14.783-13.628,16.072c0.826,0.137,1.656,0.264,2.52,0.267
	c8.763,0.031,16.251-7.509,16.224-16.339c-0.149-8.397-6.51-16.046-16.181-16.033c-0.881,0.002-1.707,0.13-2.535,0.254
	C223.424,311.321,228.699,318.257,228.834,325.873"/>
<path fill="#999999" d="M228.966,260.401c-0.01,8.087-5.939,14.691-13.712,15.914c0.822,0.128,1.649,0.252,2.511,0.254
	c9.025,0.021,16.306-7.193,16.317-16.168c0.011-8.975-7.252-16.258-16.23-16.276c-0.903-0.002-1.769,0.119-2.63,0.255
	C223.009,245.6,228.976,252.278,228.966,260.401"/>
<path fill="#999999" d="M262.24,293.674c-0.01,8.088-5.939,14.692-13.712,15.915c0.822,0.127,1.649,0.251,2.511,0.253
	c9.025,0.021,16.306-7.192,16.317-16.168c0.011-8.974-7.252-16.257-16.23-16.275c-0.903-0.002-1.769,0.118-2.63,0.254
	C256.283,278.873,262.25,285.551,262.24,293.674"/>
<path fill="#FFFFFF" d="M163.687,293.221c0.015,8.95,7.295,16.223,16.261,16.244c0.894,0.003,1.756-0.122,2.613-0.258
	c7.84-1.243,13.895-7.979,13.855-16.073c-0.04-8.131-6.046-14.78-13.879-15.987c-0.796-0.123-1.593-0.25-2.423-0.255
	C170.999,276.842,163.671,284.125,163.687,293.221"/>
<path fill="#FFFFFF" d="M196.669,325.956c0.068,8.942,7.138,16.226,15.941,16.256c0.885,0.003,1.744-0.122,2.596-0.267
	c7.589-1.289,13.653-8.134,13.628-16.072c-0.135-7.616-5.41-14.552-13.6-15.779c-0.84-0.126-1.681-0.255-2.581-0.254
	C203.166,309.853,196.602,317.301,196.669,325.956"/>
<path fill="#FFFFFF" d="M215.254,276.315c7.773-1.223,13.702-7.827,13.712-15.914c0.011-8.123-5.957-14.801-13.744-16.021
	c-0.816-0.128-1.634-0.253-2.486-0.255c-9.035-0.018-16.242,7.152-16.27,16.188c-0.026,9.052,7.124,16.234,16.184,16.256
	C213.542,276.571,214.4,276.449,215.254,276.315"/>
<path fill="#FFFFFF" d="M245.923,309.842c0.893,0.002,1.751-0.119,2.604-0.253c7.774-1.223,13.703-7.827,13.713-15.915
	c0.01-8.123-5.957-14.801-13.744-16.02c-0.816-0.128-1.634-0.254-2.486-0.255c-9.036-0.019-16.243,7.152-16.27,16.188
	C229.713,302.639,236.863,309.821,245.923,309.842"/>
<rect fill="none" width="595.28" height="841.89"/>
</svg>
