<svg width="800" height="113" viewBox="0 0 800 113" fill="none" xmlns="http://www.w3.org/2000/svg">
<path d="M2.04337 48.3195C2.04332 48.3195 2.04464 48.3183 2.04747 48.3159C2.04484 48.3183 2.04343 48.3195 2.04337 48.3195ZM3.62275 47.3091C4.13467 47.0069 4.75048 46.6545 5.46582 46.2544C7.94182 44.8695 11.4999 42.9744 15.793 40.7373C24.3739 36.2661 35.8295 30.4608 47.2964 24.7045C58.7613 18.9493 70.2293 13.2471 78.8317 8.98346C83.1328 6.85171 86.7171 5.07974 89.2261 3.84075C90.4806 3.22126 91.4662 2.73502 92.1382 2.40369L92.7232 2.11528L796.584 22.3502L781.711 59.2412L726.407 93.6747L79.9422 110.141L79.6318 109.89C79.0562 109.425 78.2119 108.743 77.1374 107.875C74.9882 106.137 71.9177 103.653 68.2329 100.667C60.863 94.6949 51.0365 86.7144 41.2081 78.681C31.3784 70.6464 21.5526 62.5634 14.1819 56.3843C10.4947 53.2932 7.43261 50.6874 5.2944 48.8055C4.64277 48.232 4.08378 47.7317 3.62275 47.3091Z" fill="url(#gradient1)" stroke="white" stroke-width="4"/>
<defs>
<linearGradient id="gradient1" x1="537.811" y1="42.2408" x2="1.39891" y2="65.8463" gradientUnits="userSpaceOnUse">
<stop stop-color="#0A000C"/>
<stop offset="0.41" stop-color="#333333"/>
<stop offset="1" stop-color="#0A000C"/>
</linearGradient>
</defs>
</svg>
